# xmcd
# 
# Track frame offsets:
#     150
#     16490
#     29372
#     41075
#     51222
#     64330
#     80650
#     100242
#     109972
#     119932
#     139397
#     156110
#     176690
#     183235
#     206977
#     219705
#     235142
#     247075
#     262087
#     272257
# 
# Disc length: 3808
# 
# Revision: 5
# Processed by: cddbd v1.5.2PL0 Copyright (c) Steve Scherf et al.
# Submitted via: fre:ac v1.0.17
# 
DISCID=3b0ede14
DTITLE=Louis Armstrong - Le meilleur de Louis Armstrong
DYEAR=1996
DGENRE=Blues
TTITLE0=Someday You'll Be Sorry
TTITLE1=Hee-Bee Jee-Bees
TTITLE2=I Can't Give You Anything But Love Baby
TTITLE3=Muskrat Ramble
TTITLE4=Dear Old Southland
TTITLE5=That Lucky Old Sun
TTITLE6=Black and Blue
TTITLE7=Panama
TTITLE8=Royal Garden Blues
TTITLE9=Chinatown My Chinatown
TTITLE10=Swing That Music
TTITLE11=Tiger Rag
TTITLE12=Baby Won't You Please Come Home
TTITLE13=Storyville Blues
TTITLE14=Jeepers Creepers
TTITLE15=Do You Know What It Means To Miss New Orleans
TTITLE16=Brother Bill
TTITLE17=Old Rockin' Chair
TTITLE18=Way Down Yonder in New Orleans
TTITLE19=I'm Not Rough
EXTD=
EXTT0=
EXTT1=
EXTT2=
EXTT3=
EXTT4=
EXTT5=
EXTT6=
EXTT7=
EXTT8=
EXTT9=
EXTT10=
EXTT11=
EXTT12=
EXTT13=
EXTT14=
EXTT15=
EXTT16=
EXTT17=
EXTT18=
EXTT19=
PLAYORDER=
